<svg width="800" height="800" viewBox="0 0 800 800" xmlns="http://www.w3.org/2000/svg">
<rect x="0" y="0" width="800" height="800" opacity="1" fill="#FFFFFF" stroke="none"/>
<circle cx="615" cy="487" r="4" opacity="1" fill="none" stroke="#E6194B" stroke-width="1"/>
<circle cx="611" cy="490" r="4" opacity="1" fill="none" stroke="#E6194B" stroke-width="1"/>
<circle cx="608" cy="493" r="4" opacity="1" fill="none" stroke="#E6194B" stroke-width="1"/>
<circle cx="604" cy="497" r="4" opacity="1" fill="none" stroke="#E6194B" stroke-width="1"/>
<circle cx="600" cy="500" r="4" opacity="1" fill="none" stroke="#E6194B" stroke-width="1"/>
<circle cx="597" cy="503" r="4" opacity="1" fill="none" stroke="#E6194B" stroke-width="1"/>
<circle cx="593" cy="506" r="4" opacity="1" fill="none" stroke="#E6194B" stroke-width="1"/>
<circle cx="589" cy="509" r="4" opacity="1" fill="none" stroke="#E6194B" stroke-width="1"/>
<circle cx="586" cy="512" r="4" opacity="1" fill="none" stroke="#E6194B" stroke-width="1"/>
<circle cx="582" cy="516" r="4" opacity="1" fill="none" stroke="#E6194B" stroke-width="1"/>
<circle cx="578" cy="519" r="4" opacity="1" fill="none" stroke="#E6194B" stroke-width="1"/>
<circle cx="574" cy="522" r="4" opacity="1" fill="none" stroke="#E6194B" stroke-width="1"/>
<circle cx="571" cy="525" r="4" opacity="1" fill="none" stroke="#E6194B" stroke-width="1"/>
<circle cx="567" cy="528" r="4" opacity="1" fill="none" stroke="#E6194B" stroke-width="1"/>
<circle cx="563" cy="531" r="4" opacity="1" fill="none" stroke="#E6194B" stroke-width="1"/>
<circle cx="560" cy="534" r="4" opacity="1" fill="none" stroke="#E6194B" stroke-width="1"/>
<circle cx="556" cy="536" r="4" opacity="1" fill="none" stroke="#E6194B" stroke-width="1"/>
<circle cx="552" cy="539" r="4" opacity="1" fill="none" stroke="#E6194B" stroke-width="1"/>
<circle cx="549" cy="542" r="4" opacity="1" fill="none" stroke="#E6194B" stroke-width="1"/>
<circle cx="545" cy="545" r="4" opacity="1" fill="none" stroke="#E6194B" stroke-width="1"/>
<circle cx="542" cy="547" r="4" opacity="1" fill="none" stroke="#E6194B" stroke-width="1"/>
<circle cx="538" cy="550" r="4" opacity="1" fill="none" stroke="#E6194B" stroke-width="1"/>
<circle cx="535" cy="553" r="4" opacity="1" fill="none" stroke="#E6194B" stroke-width="1"/>
<circle cx="531" cy="555" r="4" opacity="1" fill="none" stroke="#E6194B" stroke-width="1"/>
<circle cx="528" cy="558" r="4" opacity="1" fill="none" stroke="#E6194B" stroke-width="1"/>
<circle cx="525" cy="560" r="4" opacity="1" fill="none" stroke="#E6194B" stroke-width="1"/>
<circle cx="521" cy="563" r="4" opacity="1" fill="none" stroke="#E6194B" stroke-width="1"/>
<circle cx="518" cy="565" r="4" opacity="1" fill="none" stroke="#E6194B" stroke-width="1"/>
<circle cx="515" cy="567" r="4" opacity="1" fill="none" stroke="#E6194B" stroke-width="1"/>
<circle cx="512" cy="569" r="4" opacity="1" fill="none" stroke="#E6194B" stroke-width="1"/>
<circle cx="509" cy="572" r="4" opacity="1" fill="none" stroke="#E6194B" stroke-width="1"/>
<circle cx="506" cy="574" r="4" opacity="1" fill="none" stroke="#E6194B" stroke-width="1"/>
<circle cx="503" cy="576" r="4" opacity="1" fill="none" stroke="#E6194B" stroke-width="1"/>
<circle cx="500" cy="578" r="4" opacity="1" fill="none" stroke="#E6194B" stroke-width="1"/>
<circle cx="497" cy="580" r="4" opacity="1" fill="none" stroke="#E6194B" stroke-width="1"/>
<circle cx="495" cy="582" r="4" opacity="1" fill="none" stroke="#E6194B" stroke-width="1"/>
<circle cx="492" cy="584" r="4" opacity="1" fill="none" stroke="#E6194B" stroke-width="1"/>
<circle cx="489" cy="586" r="4" opacity="1" fill="none" stroke="#E6194B" stroke-width="1"/>
<circle cx="487" cy="587" r="4" opacity="1" fill="none" stroke="#E6194B" stroke-width="1"/>
<circle cx="484" cy="589" r="4" opacity="1" fill="none" stroke="#E6194B" stroke-width="1"/>
<circle cx="482" cy="591" r="4" opacity="1" fill="none" stroke="#E6194B" stroke-width="1"/>
<circle cx="480" cy="592" r="4" opacity="1" fill="none" stroke="#E6194B" stroke-width="1"/>
<circle cx="477" cy="594" r="4" opacity="1" fill="none" stroke="#E6194B" stroke-width="1"/>
<circle cx="475" cy="596" r="4" opacity="1" fill="none" stroke="#E6194B" stroke-width="1"/>
<circle cx="473" cy="597" r="4" opacity="1" fill="none" stroke="#E6194B" stroke-width="1"/>
<circle cx="471" cy="599" r="4" opacity="1" fill="none" stroke="#E6194B" stroke-width="1"/>
<circle cx="469" cy="600" r="4" opacity="1" fill="none" stroke="#E6194B" stroke-width="1"/>
<circle cx="467" cy="602" r="4" opacity="1" fill="none" stroke="#E6194B" stroke-width="1"/>
<circle cx="466" cy="603" r="4" opacity="1" fill="none" stroke="#E6194B" stroke-width="1"/>
<circle cx="464" cy="604" r="4" opacity="1" fill="none" stroke="#E6194B" stroke-width="1"/>
<circle cx="462" cy="606" r="4" opacity="1" fill="none" stroke="#E6194B" stroke-width="1"/>
<circle cx="461" cy="607" r="4" opacity="1" fill="none" stroke="#E6194B" stroke-width="1"/>
<circle cx="459" cy="608" r="4" opacity="1" fill="none" stroke="#E6194B" stroke-width="1"/>
<circle cx="458" cy="609" r="4" opacity="1" fill="none" stroke="#E6194B" stroke-width="1"/>
<circle cx="456" cy="610" r="4" opacity="1" fill="none" stroke="#E6194B" stroke-width="1"/>
<circle cx="455" cy="612" r="4" opacity="1" fill="none" stroke="#E6194B" stroke-width="1"/>
<circle cx="454" cy="613" r="4" opacity="1" fill="none" stroke="#E6194B" stroke-width="1"/>
<circle cx="452" cy="614" r="4" opacity="1" fill="none" stroke="#E6194B" stroke-width="1"/>
<circle cx="451" cy="615" r="4" opacity="1" fill="none" stroke="#E6194B" stroke-width="1"/>
<circle cx="450" cy="616" r="4" opacity="1" fill="none" stroke="#E6194B" stroke-width="1"/>
<circle cx="449" cy="617" r="4" opacity="1" fill="none" stroke="#E6194B" stroke-width="1"/>
<circle cx="448" cy="618" r="4" opacity="1" fill="none" stroke="#E6194B" stroke-width="1"/>
<circle cx="448" cy="618" r="4" opacity="1" fill="none" stroke="#E6194B" stroke-width="1"/>
<circle cx="447" cy="619" r="4" opacity="1" fill="none" stroke="#E6194B" stroke-width="1"/>
<circle cx="446" cy="620" r="4" opacity="1" fill="none" stroke="#E6194B" stroke-width="1"/>
<circle cx="445" cy="621" r="4" opacity="1" fill="none" stroke="#E6194B" stroke-width="1"/>
<circle cx="445" cy="622" r="4" opacity="1" fill="none" stroke="#E6194B" stroke-width="1"/>
<circle cx="444" cy="622" r="4" opacity="1" fill="none" stroke="#E6194B" stroke-width="1"/>
<circle cx="444" cy="623" r="4" opacity="1" fill="none" stroke="#E6194B" stroke-width="1"/>
<circle cx="443" cy="624" r="4" opacity="1" fill="none" stroke="#E6194B" stroke-width="1"/>
<circle cx="443" cy="624" r="4" opacity="1" fill="none" stroke="#E6194B" stroke-width="1"/>
<circle cx="442" cy="625" r="4" opacity="1" fill="none" stroke="#E6194B" stroke-width="1"/>
<circle cx="442" cy="625" r="4" opacity="1" fill="none" stroke="#E6194B" stroke-width="1"/>
<circle cx="442" cy="626" r="4" opacity="1" fill="none" stroke="#E6194B" stroke-width="1"/>
<circle cx="442" cy="626" r="4" opacity="1" fill="none" stroke="#E6194B" stroke-width="1"/>
<circle cx="442" cy="627" r="4" opacity="1" fill="none" stroke="#E6194B" stroke-width="1"/>
<circle cx="441" cy="627" r="4" opacity="1" fill="none" stroke="#E6194B" stroke-width="1"/>
<circle cx="441" cy="628" r="4" opacity="1" fill="none" stroke="#E6194B" stroke-width="1"/>
<circle cx="441" cy="628" r="4" opacity="1" fill="none" stroke="#E6194B" stroke-width="1"/>
<circle cx="441" cy="628" r="4" opacity="1" fill="none" stroke="#E6194B" stroke-width="1"/>
<circle cx="442" cy="629" r="4" opacity="1" fill="none" stroke="#E6194B" stroke-width="1"/>
<circle cx="442" cy="629" r="4" opacity="1" fill="none" stroke="#E6194B" stroke-width="1"/>
<circle cx="442" cy="629" r="4" opacity="1" fill="none" stroke="#E6194B" stroke-width="1"/>
<circle cx="442" cy="629" r="4" opacity="1" fill="none" stroke="#E6194B" stroke-width="1"/>
<circle cx="442" cy="629" r="4" opacity="1" fill="none" stroke="#E6194B" stroke-width="1"/>
<circle cx="443" cy="629" r="4" opacity="1" fill="none" stroke="#E6194B" stroke-width="1"/>
<circle cx="443" cy="630" r="4" opacity="1" fill="none" stroke="#E6194B" stroke-width="1"/>
<circle cx="443" cy="630" r="4" opacity="1" fill="none" stroke="#E6194B" stroke-width="1"/>
<circle cx="444" cy="630" r="4" opacity="1" fill="none" stroke="#E6194B" stroke-width="1"/>
<circle cx="444" cy="630" r="4" opacity="1" fill="none" stroke="#E6194B" stroke-width="1"/>
<circle cx="445" cy="630" r="4" opacity="1" fill="none" stroke="#E6194B" stroke-width="1"/>
<circle cx="445" cy="629" r="4" opacity="1" fill="none" stroke="#E6194B" stroke-width="1"/>
<circle cx="446" cy="629" r="4" opacity="1" fill="none" stroke="#E6194B" stroke-width="1"/>
<circle cx="446" cy="629" r="4" opacity="1" fill="none" stroke="#E6194B" stroke-width="1"/>
<circle cx="447" cy="629" r="4" opacity="1" fill="none" stroke="#E6194B" stroke-width="1"/>
<circle cx="447" cy="629" r="4" opacity="1" fill="none" stroke="#E6194B" stroke-width="1"/>
<circle cx="448" cy="629" r="4" opacity="1" fill="none" stroke="#E6194B" stroke-width="1"/>
<circle cx="449" cy="628" r="4" opacity="1" fill="none" stroke="#E6194B" stroke-width="1"/>
<circle cx="449" cy="628" r="4" opacity="1" fill="none" stroke="#E6194B" stroke-width="1"/>
<circle cx="450" cy="628" r="4" opacity="1" fill="none" stroke="#E6194B" stroke-width="1"/>
<circle cx="451" cy="627" r="4" opacity="1" fill="none" stroke="#E6194B" stroke-width="1"/>
<circle cx="452" cy="627" r="4" opacity="1" fill="none" stroke="#E6194B" stroke-width="1"/>
<circle cx="453" cy="626" r="4" opacity="1" fill="none" stroke="#E6194B" stroke-width="1"/>
<circle cx="453" cy="626" r="4" opacity="1" fill="none" stroke="#E6194B" stroke-width="1"/>
<circle cx="454" cy="625" r="4" opacity="1" fill="none" stroke="#E6194B" stroke-width="1"/>
<circle cx="455" cy="625" r="4" opacity="1" fill="none" stroke="#E6194B" stroke-width="1"/>
<circle cx="456" cy="624" r="4" opacity="1" fill="none" stroke="#E6194B" stroke-width="1"/>
<circle cx="457" cy="624" r="4" opacity="1" fill="none" stroke="#E6194B" stroke-width="1"/>
<circle cx="458" cy="623" r="4" opacity="1" fill="none" stroke="#E6194B" stroke-width="1"/>
<circle cx="459" cy="622" r="4" opacity="1" fill="none" stroke="#E6194B" stroke-width="1"/>
<circle cx="460" cy="622" r="4" opacity="1" fill="none" stroke="#E6194B" stroke-width="1"/>
<circle cx="461" cy="621" r="4" opacity="1" fill="none" stroke="#E6194B" stroke-width="1"/>
<circle cx="462" cy="620" r="4" opacity="1" fill="none" stroke="#E6194B" stroke-width="1"/>
<circle cx="463" cy="619" r="4" opacity="1" fill="none" stroke="#E6194B" stroke-width="1"/>
<circle cx="464" cy="619" r="4" opacity="1" fill="none" stroke="#E6194B" stroke-width="1"/>
<circle cx="465" cy="618" r="4" opacity="1" fill="none" stroke="#E6194B" stroke-width="1"/>
<circle cx="466" cy="617" r="4" opacity="1" fill="none" stroke="#E6194B" stroke-width="1"/>
<circle cx="467" cy="616" r="4" opacity="1" fill="none" stroke="#E6194B" stroke-width="1"/>
<circle cx="468" cy="615" r="4" opacity="1" fill="none" stroke="#E6194B" stroke-width="1"/>
<circle cx="469" cy="614" r="4" opacity="1" fill="none" stroke="#E6194B" stroke-width="1"/>
<circle cx="470" cy="613" r="4" opacity="1" fill="none" stroke="#E6194B" stroke-width="1"/>
<circle cx="471" cy="612" r="4" opacity="1" fill="none" stroke="#E6194B" stroke-width="1"/>
<circle cx="472" cy="611" r="4" opacity="1" fill="none" stroke="#E6194B" stroke-width="1"/>
<circle cx="473" cy="610" r="4" opacity="1" fill="none" stroke="#E6194B" stroke-width="1"/>
<circle cx="474" cy="609" r="4" opacity="1" fill="none" stroke="#E6194B" stroke-width="1"/>
<circle cx="476" cy="608" r="4" opacity="1" fill="none" stroke="#E6194B" stroke-width="1"/>
<circle cx="477" cy="606" r="4" opacity="1" fill="none" stroke="#E6194B" stroke-width="1"/>
<circle cx="478" cy="605" r="4" opacity="1" fill="none" stroke="#E6194B" stroke-width="1"/>
<circle cx="479" cy="604" r="4" opacity="1" fill="none" stroke="#E6194B" stroke-width="1"/>
<circle cx="480" cy="603" r="4" opacity="1" fill="none" stroke="#E6194B" stroke-width="1"/>
<circle cx="481" cy="601" r="4" opacity="1" fill="none" stroke="#E6194B" stroke-width="1"/>
<circle cx="482" cy="600" r="4" opacity="1" fill="none" stroke="#E6194B" stroke-width="1"/>
<circle cx="483" cy="599" r="4" opacity="1" fill="none" stroke="#E6194B" stroke-width="1"/>
<circle cx="485" cy="597" r="4" opacity="1" fill="none" stroke="#E6194B" stroke-width="1"/>
<circle cx="486" cy="596" r="4" opacity="1" fill="none" stroke="#E6194B" stroke-width="1"/>
<circle cx="487" cy="594" r="4" opacity="1" fill="none" stroke="#E6194B" stroke-width="1"/>
<circle cx="488" cy="593" r="4" opacity="1" fill="none" stroke="#E6194B" stroke-width="1"/>
<circle cx="489" cy="591" r="4" opacity="1" fill="none" stroke="#E6194B" stroke-width="1"/>
<circle cx="490" cy="590" r="4" opacity="1" fill="none" stroke="#E6194B" stroke-width="1"/>
<circle cx="491" cy="588" r="4" opacity="1" fill="none" stroke="#E6194B" stroke-width="1"/>
<circle cx="493" cy="587" r="4" opacity="1" fill="none" stroke="#E6194B" stroke-width="1"/>
<circle cx="494" cy="585" r="4" opacity="1" fill="none" stroke="#E6194B" stroke-width="1"/>
<circle cx="495" cy="584" r="4" opacity="1" fill="none" stroke="#E6194B" stroke-width="1"/>
<circle cx="496" cy="582" r="4" opacity="1" fill="none" stroke="#E6194B" stroke-width="1"/>
<circle cx="497" cy="581" r="4" opacity="1" fill="none" stroke="#E6194B" stroke-width="1"/>
<circle cx="498" cy="579" r="4" opacity="1" fill="none" stroke="#E6194B" stroke-width="1"/>
<circle cx="499" cy="577" r="4" opacity="1" fill="none" stroke="#E6194B" stroke-width="1"/>
<circle cx="501" cy="576" r="4" opacity="1" fill="none" stroke="#E6194B" stroke-width="1"/>
<circle cx="502" cy="574" r="4" opacity="1" fill="none" stroke="#E6194B" stroke-width="1"/>
<circle cx="503" cy="572" r="4" opacity="1" fill="none" stroke="#E6194B" stroke-width="1"/>
<circle cx="504" cy="571" r="4" opacity="1" fill="none" stroke="#E6194B" stroke-width="1"/>
<circle cx="505" cy="569" r="4" opacity="1" fill="none" stroke="#E6194B" stroke-width="1"/>
<circle cx="506" cy="567" r="4" opacity="1" fill="none" stroke="#E6194B" stroke-width="1"/>
<circle cx="507" cy="566" r="4" opacity="1" fill="none" stroke="#E6194B" stroke-width="1"/>
<circle cx="509" cy="564" r="4" opacity="1" fill="none" stroke="#E6194B" stroke-width="1"/>
<circle cx="510" cy="562" r="4" opacity="1" fill="none" stroke="#E6194B" stroke-width="1"/>
<circle cx="511" cy="561" r="4" opacity="1" fill="none" stroke="#E6194B" stroke-width="1"/>
<circle cx="512" cy="559" r="4" opacity="1" fill="none" stroke="#E6194B" stroke-width="1"/>
<circle cx="513" cy="557" r="4" opacity="1" fill="none" stroke="#E6194B" stroke-width="1"/>
<circle cx="514" cy="556" r="4" opacity="1" fill="none" stroke="#E6194B" stroke-width="1"/>
<circle cx="516" cy="554" r="4" opacity="1" fill="none" stroke="#E6194B" stroke-width="1"/>
<circle cx="517" cy="552" r="4" opacity="1" fill="none" stroke="#E6194B" stroke-width="1"/>
<circle cx="518" cy="551" r="4" opacity="1" fill="none" stroke="#E6194B" stroke-width="1"/>
<circle cx="519" cy="549" r="4" opacity="1" fill="none" stroke="#E6194B" stroke-width="1"/>
<circle cx="520" cy="547" r="4" opacity="1" fill="none" stroke="#E6194B" stroke-width="1"/>
<circle cx="522" cy="546" r="4" opacity="1" fill="none" stroke="#E6194B" stroke-width="1"/>
<circle cx="523" cy="544" r="4" opacity="1" fill="none" stroke="#E6194B" stroke-width="1"/>
<circle cx="524" cy="542" r="4" opacity="1" fill="none" stroke="#E6194B" stroke-width="1"/>
<circle cx="526" cy="541" r="4" opacity="1" fill="none" stroke="#E6194B" stroke-width="1"/>
<circle cx="527" cy="539" r="4" opacity="1" fill="none" stroke="#E6194B" stroke-width="1"/>
<circle cx="528" cy="538" r="4" opacity="1" fill="none" stroke="#E6194B" stroke-width="1"/>
<circle cx="530" cy="536" r="4" opacity="1" fill="none" stroke="#E6194B" stroke-width="1"/>
<circle cx="531" cy="535" r="4" opacity="1" fill="none" stroke="#E6194B" stroke-width="1"/>
<circle cx="533" cy="534" r="4" opacity="1" fill="none" stroke="#E6194B" stroke-width="1"/>
<circle cx="534" cy="532" r="4" opacity="1" fill="none" stroke="#E6194B" stroke-width="1"/>
<circle cx="536" cy="531" r="4" opacity="1" fill="none" stroke="#E6194B" stroke-width="1"/>
<circle cx="537" cy="530" r="4" opacity="1" fill="none" stroke="#E6194B" stroke-width="1"/>
<circle cx="539" cy="529" r="4" opacity="1" fill="none" stroke="#E6194B" stroke-width="1"/>
<circle cx="541" cy="527" r="4" opacity="1" fill="none" stroke="#E6194B" stroke-width="1"/>
<circle cx="542" cy="526" r="4" opacity="1" fill="none" stroke="#E6194B" stroke-width="1"/>
<circle cx="544" cy="525" r="4" opacity="1" fill="none" stroke="#E6194B" stroke-width="1"/>
<circle cx="546" cy="524" r="4" opacity="1" fill="none" stroke="#E6194B" stroke-width="1"/>
<circle cx="548" cy="523" r="4" opacity="1" fill="none" stroke="#E6194B" stroke-width="1"/>
<circle cx="550" cy="522" r="4" opacity="1" fill="none" stroke="#E6194B" stroke-width="1"/>
<circle cx="551" cy="521" r="4" opacity="1" fill="none" stroke="#E6194B" stroke-width="1"/>
<circle cx="553" cy="520" r="4" opacity="1" fill="none" stroke="#E6194B" stroke-width="1"/>
<circle cx="555" cy="519" r="4" opacity="1" fill="none" stroke="#E6194B" stroke-width="1"/>
<circle cx="558" cy="518" r="4" opacity="1" fill="none" stroke="#E6194B" stroke-width="1"/>
<circle cx="560" cy="517" r="4" opacity="1" fill="none" stroke="#E6194B" stroke-width="1"/>
<circle cx="562" cy="517" r="4" opacity="1" fill="none" stroke="#E6194B" stroke-width="1"/>
<circle cx="564" cy="516" r="4" opacity="1" fill="none" stroke="#E6194B" stroke-width="1"/>
<circle cx="566" cy="515" r="4" opacity="1" fill="none" stroke="#E6194B" stroke-width="1"/>
<circle cx="568" cy="514" r="4" opacity="1" fill="none" stroke="#E6194B" stroke-width="1"/>
<circle cx="571" cy="514" r="4" opacity="1" fill="none" stroke="#E6194B" stroke-width="1"/>
<circle cx="573" cy="513" r="4" opacity="1" fill="none" stroke="#E6194B" stroke-width="1"/>
<circle cx="575" cy="512" r="4" opacity="1" fill="none" stroke="#E6194B" stroke-width="1"/>
<circle cx="578" cy="512" r="4" opacity="1" fill="none" stroke="#E6194B" stroke-width="1"/>
<circle cx="580" cy="511" r="4" opacity="1" fill="none" stroke="#E6194B" stroke-width="1"/>
<circle cx="582" cy="510" r="4" opacity="1" fill="none" stroke="#E6194B" stroke-width="1"/>
<circle cx="585" cy="510" r="4" opacity="1" fill="none" stroke="#E6194B" stroke-width="1"/>
<circle cx="587" cy="509" r="4" opacity="1" fill="none" stroke="#E6194B" stroke-width="1"/>
<circle cx="590" cy="508" r="4" opacity="1" fill="none" stroke="#E6194B" stroke-width="1"/>
<circle cx="592" cy="507" r="4" opacity="1" fill="none" stroke="#E6194B" stroke-width="1"/>
<circle cx="595" cy="507" r="4" opacity="1" fill="none" stroke="#E6194B" stroke-width="1"/>
<circle cx="597" cy="506" r="4" opacity="1" fill="none" stroke="#E6194B" stroke-width="1"/>
<circle cx="600" cy="505" r="4" opacity="1" fill="none" stroke="#E6194B" stroke-width="1"/>
<circle cx="602" cy="505" r="4" opacity="1" fill="none" stroke="#E6194B" stroke-width="1"/>
<circle cx="605" cy="504" r="4" opacity="1" fill="none" stroke="#E6194B" stroke-width="1"/>
<circle cx="607" cy="503" r="4" opacity="1" fill="none" stroke="#E6194B" stroke-width="1"/>
<circle cx="610" cy="502" r="4" opacity="1" fill="none" stroke="#E6194B" stroke-width="1"/>
<circle cx="612" cy="502" r="4" opacity="1" fill="none" stroke="#E6194B" stroke-width="1"/>
<circle cx="615" cy="501" r="4" opacity="1" fill="none" stroke="#E6194B" stroke-width="1"/>
<circle cx="617" cy="500" r="4" opacity="1" fill="none" stroke="#E6194B" stroke-width="1"/>
<circle cx="620" cy="499" r="4" opacity="1" fill="none" stroke="#E6194B" stroke-width="1"/>
<circle cx="622" cy="498" r="4" opacity="1" fill="none" stroke="#E6194B" stroke-width="1"/>
<circle cx="625" cy="497" r="4" opacity="1" fill="none" stroke="#E6194B" stroke-width="1"/>
<circle cx="627" cy="496" r="4" opacity="1" fill="none" stroke="#E6194B" stroke-width="1"/>
<circle cx="630" cy="496" r="4" opacity="1" fill="none" stroke="#E6194B" stroke-width="1"/>
<circle cx="632" cy="495" r="4" opacity="1" fill="none" stroke="#E6194B" stroke-width="1"/>
<circle cx="635" cy="494" r="4" opacity="1" fill="none" stroke="#E6194B" stroke-width="1"/>
<circle cx="637" cy="493" r="4" opacity="1" fill="none" stroke="#E6194B" stroke-width="1"/>
<circle cx="640" cy="492" r="4" opacity="1" fill="none" stroke="#E6194B" stroke-width="1"/>
<circle cx="642" cy="491" r="4" opacity="1" fill="none" stroke="#E6194B" stroke-width="1"/>
<circle cx="644" cy="490" r="4" opacity="1" fill="none" stroke="#E6194B" stroke-width="1"/>
<circle cx="647" cy="489" r="4" opacity="1" fill="none" stroke="#E6194B" stroke-width="1"/>
<circle cx="649" cy="487" r="4" opacity="1" fill="none" stroke="#E6194B" stroke-width="1"/>
<circle cx="651" cy="486" r="4" opacity="1" fill="none" stroke="#E6194B" stroke-width="1"/>
<circle cx="654" cy="485" r="4" opacity="1" fill="none" stroke="#E6194B" stroke-width="1"/>
<circle cx="656" cy="484" r="4" opacity="1" fill="none" stroke="#E6194B" stroke-width="1"/>
<circle cx="658" cy="483" r="4" opacity="1" fill="none" stroke="#E6194B" stroke-width="1"/>
<circle cx="661" cy="482" r="4" opacity="1" fill="none" stroke="#E6194B" stroke-width="1"/>
<circle cx="663" cy="480" r="4" opacity="1" fill="none" stroke="#E6194B" stroke-width="1"/>
<circle cx="665" cy="479" r="4" opacity="1" fill="none" stroke="#E6194B" stroke-width="1"/>
<circle cx="667" cy="478" r="4" opacity="1" fill="none" stroke="#E6194B" stroke-width="1"/>
<circle cx="669" cy="477" r="4" opacity="1" fill="none" stroke="#E6194B" stroke-width="1"/>
<circle cx="672" cy="475" r="4" opacity="1" fill="none" stroke="#E6194B" stroke-width="1"/>
<circle cx="674" cy="474" r="4" opacity="1" fill="none" stroke="#E6194B" stroke-width="1"/>
<circle cx="676" cy="473" r="4" opacity="1" fill="none" stroke="#E6194B" stroke-width="1"/>
<circle cx="678" cy="471" r="4" opacity="1" fill="none" stroke="#E6194B" stroke-width="1"/>
<circle cx="680" cy="470" r="4" opacity="1" fill="none" stroke="#E6194B" stroke-width="1"/>
<circle cx="682" cy="469" r="4" opacity="1" fill="none" stroke="#E6194B" stroke-width="1"/>
<circle cx="684" cy="467" r="4" opacity="1" fill="none" stroke="#E6194B" stroke-width="1"/>
<circle cx="686" cy="466" r="4" opacity="1" fill="none" stroke="#E6194B" stroke-width="1"/>
<circle cx="688" cy="464" r="4" opacity="1" fill="none" stroke="#E6194B" stroke-width="1"/>
<circle cx="690" cy="463" r="4" opacity="1" fill="none" stroke="#E6194B" stroke-width="1"/>
<circle cx="691" cy="462" r="4" opacity="1" fill="none" stroke="#E6194B" stroke-width="1"/>
<circle cx="693" cy="460" r="4" opacity="1" fill="none" stroke="#E6194B" stroke-width="1"/>
<circle cx="695" cy="459" r="4" opacity="1" fill="none" stroke="#E6194B" stroke-width="1"/>
<circle cx="697" cy="457" r="4" opacity="1" fill="none" stroke="#E6194B" stroke-width="1"/>
<circle cx="698" cy="456" r="4" opacity="1" fill="none" stroke="#E6194B" stroke-width="1"/>
<circle cx="700" cy="454" r="4" opacity="1" fill="none" stroke="#E6194B" stroke-width="1"/>
<circle cx="702" cy="453" r="4" opacity="1" fill="none" stroke="#E6194B" stroke-width="1"/>
<circle cx="703" cy="451" r="4" opacity="1" fill="none" stroke="#E6194B" stroke-width="1"/>
<circle cx="705" cy="450" r="4" opacity="1" fill="none" stroke="#E6194B" stroke-width="1"/>
<circle cx="706" cy="448" r="4" opacity="1" fill="none" stroke="#E6194B" stroke-width="1"/>
<circle cx="708" cy="447" r="4" opacity="1" fill="none" stroke="#E6194B" stroke-width="1"/>
<circle cx="709" cy="445" r="4" opacity="1" fill="none" stroke="#E6194B" stroke-width="1"/>
<circle cx="711" cy="444" r="4" opacity="1" fill="none" stroke="#E6194B" stroke-width="1"/>
<circle cx="712" cy="442" r="4" opacity="1" fill="none" stroke="#E6194B" stroke-width="1"/>
<circle cx="713" cy="440" r="4" opacity="1" fill="none" stroke="#E6194B" stroke-width="1"/>
<circle cx="715" cy="439" r="4" opacity="1" fill="none" stroke="#E6194B" stroke-width="1"/>
<circle cx="716" cy="437" r="4" opacity="1" fill="none" stroke="#E6194B" stroke-width="1"/>
<circle cx="717" cy="436" r="4" opacity="1" fill="none" stroke="#E6194B" stroke-width="1"/>
<circle cx="718" cy="434" r="4" opacity="1" fill="none" stroke="#E6194B" stroke-width="1"/>
<circle cx="720" cy="433" r="4" opacity="1" fill="none" stroke="#E6194B" stroke-width="1"/>
<circle cx="721" cy="431" r="4" opacity="1" fill="none" stroke="#E6194B" stroke-width="1"/>
<circle cx="722" cy="430" r="4" opacity="1" fill="none" stroke="#E6194B" stroke-width="1"/>
<circle cx="723" cy="428" r="4" opacity="1" fill="none" stroke="#E6194B" stroke-width="1"/>
<circle cx="724" cy="427" r="4" opacity="1" fill="none" stroke="#E6194B" stroke-width="1"/>
<circle cx="725" cy="425" r="4" opacity="1" fill="none" stroke="#E6194B" stroke-width="1"/>
<circle cx="726" cy="424" r="4" opacity="1" fill="none" stroke="#E6194B" stroke-width="1"/>
<circle cx="726" cy="422" r="4" opacity="1" fill="none" stroke="#E6194B" stroke-width="1"/>
<circle cx="727" cy="421" r="4" opacity="1" fill="none" stroke="#E6194B" stroke-width="1"/>
<circle cx="728" cy="420" r="4" opacity="1" fill="none" stroke="#E6194B" stroke-width="1"/>
<circle cx="729" cy="418" r="4" opacity="1" fill="none" stroke="#E6194B" stroke-width="1"/>
<circle cx="729" cy="417" r="4" opacity="1" fill="none" stroke="#E6194B" stroke-width="1"/>
<circle cx="730" cy="415" r="4" opacity="1" fill="none" stroke="#E6194B" stroke-width="1"/>
<circle cx="731" cy="414" r="4" opacity="1" fill="none" stroke="#E6194B" stroke-width="1"/>
<circle cx="731" cy="413" r="4" opacity="1" fill="none" stroke="#E6194B" stroke-width="1"/>
<circle cx="732" cy="411" r="4" opacity="1" fill="none" stroke="#E6194B" stroke-width="1"/>
<circle cx="732" cy="410" r="4" opacity="1" fill="none" stroke="#E6194B" stroke-width="1"/>
<circle cx="733" cy="409" r="4" opacity="1" fill="none" stroke="#E6194B" stroke-width="1"/>
<circle cx="733" cy="408" r="4" opacity="1" fill="none" stroke="#E6194B" stroke-width="1"/>
<circle cx="733" cy="406" r="4" opacity="1" fill="none" stroke="#E6194B" stroke-width="1"/>
<circle cx="734" cy="405" r="4" opacity="1" fill="none" stroke="#E6194B" stroke-width="1"/>
<circle cx="734" cy="404" r="4" opacity="1" fill="none" stroke="#E6194B" stroke-width="1"/>
<circle cx="734" cy="403" r="4" opacity="1" fill="none" stroke="#E6194B" stroke-width="1"/>
<circle cx="734" cy="402" r="4" opacity="1" fill="none" stroke="#E6194B" stroke-width="1"/>
<circle cx="734" cy="401" r="4" opacity="1" fill="none" stroke="#E6194B" stroke-width="1"/>
<circle cx="734" cy="400" r="4" opacity="1" fill="none" stroke="#E6194B" stroke-width="1"/>
<circle cx="735" cy="399" r="4" opacity="1" fill="none" stroke="#E6194B" stroke-width="1"/>
<circle cx="734" cy="398" r="4" opacity="1" fill="none" stroke="#E6194B" stroke-width="1"/>
<circle cx="734" cy="397" r="4" opacity="1" fill="none" stroke="#E6194B" stroke-width="1"/>
<circle cx="734" cy="396" r="4" opacity="1" fill="none" stroke="#E6194B" stroke-width="1"/>
<circle cx="734" cy="395" r="4" opacity="1" fill="none" stroke="#E6194B" stroke-width="1"/>
<circle cx="734" cy="395" r="4" opacity="1" fill="none" stroke="#E6194B" stroke-width="1"/>
<circle cx="734" cy="394" r="4" opacity="1" fill="none" stroke="#E6194B" stroke-width="1"/>
<circle cx="734" cy="393" r="4" opacity="1" fill="none" stroke="#E6194B" stroke-width="1"/>
<circle cx="733" cy="393" r="4" opacity="1" fill="none" stroke="#E6194B" stroke-width="1"/>
<circle cx="733" cy="392" r="4" opacity="1" fill="none" stroke="#E6194B" stroke-width="1"/>
<circle cx="732" cy="392" r="4" opacity="1" fill="none" stroke="#E6194B" stroke-width="1"/>
<circle cx="732" cy="391" r="4" opacity="1" fill="none" stroke="#E6194B" stroke-width="1"/>
<circle cx="731" cy="391" r="4" opacity="1" fill="none" stroke="#E6194B" stroke-width="1"/>
<circle cx="731" cy="390" r="4" opacity="1" fill="none" stroke="#E6194B" stroke-width="1"/>
<circle cx="730" cy="390" r="4" opacity="1" fill="none" stroke="#E6194B" stroke-width="1"/>
<circle cx="730" cy="390" r="4" opacity="1" fill="none" stroke="#E6194B" stroke-width="1"/>
<circle cx="729" cy="390" r="4" opacity="1" fill="none" stroke="#E6194B" stroke-width="1"/>
<circle cx="728" cy="390" r="4" opacity="1" fill="none" stroke="#E6194B" stroke-width="1"/>
<circle cx="728" cy="390" r="4" opacity="1" fill="none" stroke="#E6194B" stroke-width="1"/>
<circle cx="727" cy="390" r="4" opacity="1" fill="none" stroke="#E6194B" stroke-width="1"/>
<circle cx="726" cy="390" r="4" opacity="1" fill="none" stroke="#E6194B" stroke-width="1"/>
<circle cx="725" cy="390" r="4" opacity="1" fill="none" stroke="#E6194B" stroke-width="1"/>
<circle cx="724" cy="390" r="4" opacity="1" fill="none" stroke="#E6194B" stroke-width="1"/>
<circle cx="723" cy="390" r="4" opacity="1" fill="none" stroke="#E6194B" stroke-width="1"/>
<circle cx="722" cy="391" r="4" opacity="1" fill="none" stroke="#E6194B" stroke-width="1"/>
<circle cx="721" cy="391" r="4" opacity="1" fill="none" stroke="#E6194B" stroke-width="1"/>
<circle cx="720" cy="392" r="4" opacity="1" fill="none" stroke="#E6194B" stroke-width="1"/>
<circle cx="718" cy="392" r="4" opacity="1" fill="none" stroke="#E6194B" stroke-width="1"/>
<circle cx="717" cy="393" r="4" opacity="1" fill="none" stroke="#E6194B" stroke-width="1"/>
<circle cx="716" cy="394" r="4" opacity="1" fill="none" stroke="#E6194B" stroke-width="1"/>
<circle cx="715" cy="395" r="4" opacity="1" fill="none" stroke="#E6194B" stroke-width="1"/>
<circle cx="713" cy="395" r="4" opacity="1" fill="none" stroke="#E6194B" stroke-width="1"/>
<circle cx="712" cy="396" r="4" opacity="1" fill="none" stroke="#E6194B" stroke-width="1"/>
<circle cx="710" cy="397" r="4" opacity="1" fill="none" stroke="#E6194B" stroke-width="1"/>
<circle cx="709" cy="399" r="4" opacity="1" fill="none" stroke="#E6194B" stroke-width="1"/>
<circle cx="707" cy="400" r="4" opacity="1" fill="none" stroke="#E6194B" stroke-width="1"/>
<circle cx="705" cy="401" r="4" opacity="1" fill="none" stroke="#E6194B" stroke-width="1"/>
<circle cx="704" cy="402" r="4" opacity="1" fill="none" stroke="#E6194B" stroke-width="1"/>
<circle cx="702" cy="404" r="4" opacity="1" fill="none" stroke="#E6194B" stroke-width="1"/>
<circle cx="700" cy="405" r="4" opacity="1" fill="none" stroke="#E6194B" stroke-width="1"/>
<circle cx="698" cy="407" r="4" opacity="1" fill="none" stroke="#E6194B" stroke-width="1"/>
<circle cx="696" cy="409" r="4" opacity="1" fill="none" stroke="#E6194B" stroke-width="1"/>
<circle cx="694" cy="411" r="4" opacity="1" fill="none" stroke="#E6194B" stroke-width="1"/>
<circle cx="692" cy="412" r="4" opacity="1" fill="none" stroke="#E6194B" stroke-width="1"/>
<circle cx="690" cy="414" r="4" opacity="1" fill="none" stroke="#E6194B" stroke-width="1"/>
<circle cx="688" cy="416" r="4" opacity="1" fill="none" stroke="#E6194B" stroke-width="1"/>
<circle cx="686" cy="419" r="4" opacity="1" fill="none" stroke="#E6194B" stroke-width="1"/>
<circle cx="683" cy="421" r="4" opacity="1" fill="none" stroke="#E6194B" stroke-width="1"/>
<circle cx="681" cy="423" r="4" opacity="1" fill="none" stroke="#E6194B" stroke-width="1"/>
<circle cx="679" cy="425" r="4" opacity="1" fill="none" stroke="#E6194B" stroke-width="1"/>
<circle cx="676" cy="428" r="4" opacity="1" fill="none" stroke="#E6194B" stroke-width="1"/>
<circle cx="674" cy="430" r="4" opacity="1" fill="none" stroke="#E6194B" stroke-width="1"/>
<circle cx="671" cy="433" r="4" opacity="1" fill="none" stroke="#E6194B" stroke-width="1"/>
<circle cx="668" cy="435" r="4" opacity="1" fill="none" stroke="#E6194B" stroke-width="1"/>
<circle cx="666" cy="438" r="4" opacity="1" fill="none" stroke="#E6194B" stroke-width="1"/>
<circle cx="663" cy="441" r="4" opacity="1" fill="none" stroke="#E6194B" stroke-width="1"/>
<circle cx="660" cy="444" r="4" opacity="1" fill="none" stroke="#E6194B" stroke-width="1"/>
<circle cx="657" cy="446" r="4" opacity="1" fill="none" stroke="#E6194B" stroke-width="1"/>
<circle cx="654" cy="449" r="4" opacity="1" fill="none" stroke="#E6194B" stroke-width="1"/>
<circle cx="651" cy="452" r="4" opacity="1" fill="none" stroke="#E6194B" stroke-width="1"/>
<circle cx="648" cy="455" r="4" opacity="1" fill="none" stroke="#E6194B" stroke-width="1"/>
<circle cx="645" cy="458" r="4" opacity="1" fill="none" stroke="#E6194B" stroke-width="1"/>
<circle cx="642" cy="461" r="4" opacity="1" fill="none" stroke="#E6194B" stroke-width="1"/>
<circle cx="639" cy="464" r="4" opacity="1" fill="none" stroke="#E6194B" stroke-width="1"/>
<circle cx="635" cy="468" r="4" opacity="1" fill="none" stroke="#E6194B" stroke-width="1"/>
<circle cx="632" cy="471" r="4" opacity="1" fill="none" stroke="#E6194B" stroke-width="1"/>
<circle cx="629" cy="474" r="4" opacity="1" fill="none" stroke="#E6194B" stroke-width="1"/>
<circle cx="625" cy="477" r="4" opacity="1" fill="none" stroke="#E6194B" stroke-width="1"/>
<circle cx="622" cy="480" r="4" opacity="1" fill="none" stroke="#E6194B" stroke-width="1"/>
<circle cx="618" cy="484" r="4" opacity="1" fill="none" stroke="#E6194B" stroke-width="1"/>
<polyline fill="none" opacity="1" stroke="#000000" stroke-width="1" points="274,542 128,520 "/>
<polyline fill="none" opacity="1" stroke="#000000" stroke-width="1" points="128,520 445,630 395,399 128,520 "/>
<polyline fill="none" opacity="1" stroke="#000000" stroke-width="1" points="329,138 395,399 "/>
<polygon opacity="1" fill="#000000" points="274,542 266,557 283,557 "/>
<polygon opacity="1" fill="#000000" points="329,138 321,153 338,153 "/>
<circle cx="274" cy="542" r="5" opacity="1" fill="#000000" stroke="none" stroke-width="1"/>
<circle cx="329" cy="138" r="5" opacity="1" fill="#000000" stroke="none" stroke-width="1"/>
<circle cx="128" cy="520" r="5" opacity="1" fill="#000000" stroke="none" stroke-width="1"/>
<circle cx="395" cy="399" r="5" opacity="1" fill="#000000" stroke="none" stroke-width="1"/>
<circle cx="445" cy="630" r="5" opacity="1" fill="#000000" stroke="none" stroke-width="1"/>
</svg>
