<svg width="800" height="800" viewBox="0 0 800 800" xmlns="http://www.w3.org/2000/svg">
<rect x="0" y="0" width="800" height="800" opacity="1" fill="#FFFFFF" stroke="none"/>
<polyline fill="none" opacity="1" stroke="#E6194B" stroke-width="2" points="349,401 350,402 350,401 350,399 350,398 350,397 349,395 349,394 349,392 349,391 349,389 348,388 348,386 348,385 347,383 347,382 346,381 346,379 345,378 344,376 344,375 343,374 342,372 341,371 341,370 340,369 339,367 338,366 337,365 336,364 335,363 334,361 333,360 332,359 330,358 329,357 328,356 327,355 326,354 324,354 323,353 322,352 320,351 319,350 317,350 316,349 314,348 313,348 311,347 310,347 308,346 307,346 305,345 303,345 302,344 300,344 298,344 296,344 295,343 293,343 291,343 289,343 288,343 286,343 284,343 282,344 280,344 279,344 277,344 275,345 273,345 271,345 269,346 267,346 266,347 264,347 262,348 260,349 258,350 256,350 254,351 252,352 251,353 249,354 247,355 245,356 243,357 241,358 240,360 238,361 236,362 234,364 232,365 231,367 229,368 227,370 226,371 224,373 222,375 221,376 219,378 218,380 216,382 214,384 213,386 211,388 210,390 209,392 207,394 206,397 205,399 203,401 202,404 201,406 200,408 198,411 197,413 196,416 195,418 194,421 193,424 192,426 191,429 191,432 190,435 189,438 188,440 188,443 187,446 187,449 186,452 186,455 185,458 185,461 184,464 184,468 184,471 184,474 184,477 184,480 184,483 184,487 184,490 184,493 184,497 185,500 185,503 185,507 186,510 186,513 187,517 188,520 188,524 189,527 190,530 191,534 192,537 193,541 194,544 195,547 196,551 197,554 199,558 200,561 202,564 203,568 205,571 206,575 208,578 210,581 212,584 214,588 216,591 218,594 220,598 222,601 224,604 226,607 229,610 231,613 234,617 236,620 239,623 242,626 244,629 247,631 250,634 253,637 256,640 259,643 262,646 265,648 269,651 272,653 275,656 279,658 282,661 286,663 289,666 293,668 296,670 300,672 304,674 308,676 312,678 316,680 320,682 324,684 328,686 332,687 336,689 340,690 345,692 349,693 353,694 358,695 362,697 366,698 371,699 376,699 380,700 385,701 389,702 394,702 399,703 403,703 408,703 413,703 418,703 423,703 427,703 432,703 437,703 442,703 447,702 452,701 457,701 462,700 467,699 471,698 476,697 481,696 486,695 491,693 496,692 501,690 506,688 511,686 516,685 520,682 525,680 530,678 535,676 540,673 544,671 549,668 554,665 558,662 563,659 568,656 572,652 577,649 581,646 585,642 590,638 594,634 598,630 602,626 606,622 610,618 614,613 618,609 622,604 625,599 629,594 632,589 636,584 639,579 642,574 645,568 648,563 651,557 654,552 657,546 659,540 662,534 664,528 666,521 668,515 670,509 671,502 673,496 674,489 675,482 676,475 677,469 678,462 678,455 678,448 678,440 678,433 678,426 677,419 676,412 675,404 674,397 672,390 671,382 669,375 666,368 664,361 661,354 658,346 655,339 651,332 647,326 643,319 638,312 634,306 628,299 623,293 617,287 611,281 605,276 598,271 592,266 584,261 577,257 569,253 561,249 553,246 545,243 536,241 527,239 518,237 509,237 500,236 490,237 481,237 472,239 462,241 453,244 444,247 434,251 426,256 417,262 408,268 400,274 393,282 386,290 379,298 373,307 367,317 363,327 358,337 355,348 352,359 350,370 349,381 349,392 "/>
<polyline fill="none" opacity="1" stroke="#FF0000" stroke-width="5" points="403,388 458,388 "/>
<polyline fill="none" opacity="1" stroke="#0000FF" stroke-width="5" points="403,388 403,331 "/>
<polyline fill="none" opacity="1" stroke="#000000" stroke-width="1" points="403,388 403,217 "/>
<polyline fill="none" opacity="1" stroke="#000000" stroke-width="1" points="403,217 236,362 606,64 403,217 "/>
<polyline fill="none" opacity="1" stroke="#000000" stroke-width="1" points="485,388 606,64 "/>
<polygon opacity="1" fill="#000000" points="403,388 395,403 412,403 "/>
<polygon opacity="1" fill="#000000" points="485,388 477,403 494,403 "/>
<circle cx="403" cy="388" r="5" opacity="1" fill="#000000" stroke="none" stroke-width="1"/>
<circle cx="485" cy="388" r="5" opacity="1" fill="#000000" stroke="none" stroke-width="1"/>
<circle cx="403" cy="217" r="5" opacity="1" fill="#000000" stroke="none" stroke-width="1"/>
<circle cx="606" cy="64" r="5" opacity="1" fill="#000000" stroke="none" stroke-width="1"/>
<circle cx="236" cy="362" r="5" opacity="1" fill="#000000" stroke="none" stroke-width="1"/>
</svg>
