<svg width="800" height="800" viewBox="0 0 800 800" xmlns="http://www.w3.org/2000/svg">
<rect x="0" y="0" width="800" height="800" opacity="1" fill="#FFFFFF" stroke="none"/>
<circle cx="600" cy="509" r="4" opacity="1" fill="none" stroke="#E6194B" stroke-width="1"/>
<circle cx="595" cy="512" r="4" opacity="1" fill="none" stroke="#E6194B" stroke-width="1"/>
<circle cx="589" cy="515" r="4" opacity="1" fill="none" stroke="#E6194B" stroke-width="1"/>
<circle cx="583" cy="518" r="4" opacity="1" fill="none" stroke="#E6194B" stroke-width="1"/>
<circle cx="577" cy="520" r="4" opacity="1" fill="none" stroke="#E6194B" stroke-width="1"/>
<circle cx="571" cy="523" r="4" opacity="1" fill="none" stroke="#E6194B" stroke-width="1"/>
<circle cx="564" cy="525" r="4" opacity="1" fill="none" stroke="#E6194B" stroke-width="1"/>
<circle cx="558" cy="527" r="4" opacity="1" fill="none" stroke="#E6194B" stroke-width="1"/>
<circle cx="551" cy="528" r="4" opacity="1" fill="none" stroke="#E6194B" stroke-width="1"/>
<circle cx="545" cy="529" r="4" opacity="1" fill="none" stroke="#E6194B" stroke-width="1"/>
<circle cx="538" cy="530" r="4" opacity="1" fill="none" stroke="#E6194B" stroke-width="1"/>
<circle cx="532" cy="531" r="4" opacity="1" fill="none" stroke="#E6194B" stroke-width="1"/>
<circle cx="525" cy="532" r="4" opacity="1" fill="none" stroke="#E6194B" stroke-width="1"/>
<circle cx="519" cy="532" r="4" opacity="1" fill="none" stroke="#E6194B" stroke-width="1"/>
<circle cx="513" cy="532" r="4" opacity="1" fill="none" stroke="#E6194B" stroke-width="1"/>
<circle cx="507" cy="532" r="4" opacity="1" fill="none" stroke="#E6194B" stroke-width="1"/>
<circle cx="501" cy="532" r="4" opacity="1" fill="none" stroke="#E6194B" stroke-width="1"/>
<circle cx="495" cy="531" r="4" opacity="1" fill="none" stroke="#E6194B" stroke-width="1"/>
<circle cx="489" cy="530" r="4" opacity="1" fill="none" stroke="#E6194B" stroke-width="1"/>
<circle cx="484" cy="530" r="4" opacity="1" fill="none" stroke="#E6194B" stroke-width="1"/>
<circle cx="478" cy="529" r="4" opacity="1" fill="none" stroke="#E6194B" stroke-width="1"/>
<circle cx="473" cy="528" r="4" opacity="1" fill="none" stroke="#E6194B" stroke-width="1"/>
<circle cx="468" cy="527" r="4" opacity="1" fill="none" stroke="#E6194B" stroke-width="1"/>
<circle cx="463" cy="526" r="4" opacity="1" fill="none" stroke="#E6194B" stroke-width="1"/>
<circle cx="458" cy="524" r="4" opacity="1" fill="none" stroke="#E6194B" stroke-width="1"/>
<circle cx="453" cy="523" r="4" opacity="1" fill="none" stroke="#E6194B" stroke-width="1"/>
<circle cx="448" cy="522" r="4" opacity="1" fill="none" stroke="#E6194B" stroke-width="1"/>
<circle cx="444" cy="520" r="4" opacity="1" fill="none" stroke="#E6194B" stroke-width="1"/>
<circle cx="439" cy="519" r="4" opacity="1" fill="none" stroke="#E6194B" stroke-width="1"/>
<circle cx="435" cy="517" r="4" opacity="1" fill="none" stroke="#E6194B" stroke-width="1"/>
<circle cx="431" cy="516" r="4" opacity="1" fill="none" stroke="#E6194B" stroke-width="1"/>
<circle cx="427" cy="515" r="4" opacity="1" fill="none" stroke="#E6194B" stroke-width="1"/>
<circle cx="423" cy="513" r="4" opacity="1" fill="none" stroke="#E6194B" stroke-width="1"/>
<circle cx="419" cy="512" r="4" opacity="1" fill="none" stroke="#E6194B" stroke-width="1"/>
<circle cx="415" cy="510" r="4" opacity="1" fill="none" stroke="#E6194B" stroke-width="1"/>
<circle cx="411" cy="509" r="4" opacity="1" fill="none" stroke="#E6194B" stroke-width="1"/>
<circle cx="407" cy="507" r="4" opacity="1" fill="none" stroke="#E6194B" stroke-width="1"/>
<circle cx="404" cy="506" r="4" opacity="1" fill="none" stroke="#E6194B" stroke-width="1"/>
<circle cx="400" cy="504" r="4" opacity="1" fill="none" stroke="#E6194B" stroke-width="1"/>
<circle cx="396" cy="503" r="4" opacity="1" fill="none" stroke="#E6194B" stroke-width="1"/>
<circle cx="393" cy="502" r="4" opacity="1" fill="none" stroke="#E6194B" stroke-width="1"/>
<circle cx="390" cy="500" r="4" opacity="1" fill="none" stroke="#E6194B" stroke-width="1"/>
<circle cx="386" cy="499" r="4" opacity="1" fill="none" stroke="#E6194B" stroke-width="1"/>
<circle cx="383" cy="498" r="4" opacity="1" fill="none" stroke="#E6194B" stroke-width="1"/>
<circle cx="380" cy="496" r="4" opacity="1" fill="none" stroke="#E6194B" stroke-width="1"/>
<circle cx="376" cy="495" r="4" opacity="1" fill="none" stroke="#E6194B" stroke-width="1"/>
<circle cx="373" cy="494" r="4" opacity="1" fill="none" stroke="#E6194B" stroke-width="1"/>
<circle cx="370" cy="493" r="4" opacity="1" fill="none" stroke="#E6194B" stroke-width="1"/>
<circle cx="367" cy="492" r="4" opacity="1" fill="none" stroke="#E6194B" stroke-width="1"/>
<circle cx="364" cy="491" r="4" opacity="1" fill="none" stroke="#E6194B" stroke-width="1"/>
<circle cx="361" cy="490" r="4" opacity="1" fill="none" stroke="#E6194B" stroke-width="1"/>
<circle cx="358" cy="489" r="4" opacity="1" fill="none" stroke="#E6194B" stroke-width="1"/>
<circle cx="355" cy="488" r="4" opacity="1" fill="none" stroke="#E6194B" stroke-width="1"/>
<circle cx="352" cy="487" r="4" opacity="1" fill="none" stroke="#E6194B" stroke-width="1"/>
<circle cx="349" cy="486" r="4" opacity="1" fill="none" stroke="#E6194B" stroke-width="1"/>
<circle cx="346" cy="485" r="4" opacity="1" fill="none" stroke="#E6194B" stroke-width="1"/>
<circle cx="344" cy="484" r="4" opacity="1" fill="none" stroke="#E6194B" stroke-width="1"/>
<circle cx="341" cy="483" r="4" opacity="1" fill="none" stroke="#E6194B" stroke-width="1"/>
<circle cx="338" cy="483" r="4" opacity="1" fill="none" stroke="#E6194B" stroke-width="1"/>
<circle cx="335" cy="482" r="4" opacity="1" fill="none" stroke="#E6194B" stroke-width="1"/>
<circle cx="332" cy="481" r="4" opacity="1" fill="none" stroke="#E6194B" stroke-width="1"/>
<circle cx="330" cy="481" r="4" opacity="1" fill="none" stroke="#E6194B" stroke-width="1"/>
<circle cx="327" cy="480" r="4" opacity="1" fill="none" stroke="#E6194B" stroke-width="1"/>
<circle cx="324" cy="480" r="4" opacity="1" fill="none" stroke="#E6194B" stroke-width="1"/>
<circle cx="322" cy="479" r="4" opacity="1" fill="none" stroke="#E6194B" stroke-width="1"/>
<circle cx="319" cy="479" r="4" opacity="1" fill="none" stroke="#E6194B" stroke-width="1"/>
<circle cx="317" cy="479" r="4" opacity="1" fill="none" stroke="#E6194B" stroke-width="1"/>
<circle cx="314" cy="478" r="4" opacity="1" fill="none" stroke="#E6194B" stroke-width="1"/>
<circle cx="312" cy="478" r="4" opacity="1" fill="none" stroke="#E6194B" stroke-width="1"/>
<circle cx="309" cy="478" r="4" opacity="1" fill="none" stroke="#E6194B" stroke-width="1"/>
<circle cx="307" cy="478" r="4" opacity="1" fill="none" stroke="#E6194B" stroke-width="1"/>
<circle cx="304" cy="478" r="4" opacity="1" fill="none" stroke="#E6194B" stroke-width="1"/>
<circle cx="302" cy="478" r="4" opacity="1" fill="none" stroke="#E6194B" stroke-width="1"/>
<circle cx="299" cy="478" r="4" opacity="1" fill="none" stroke="#E6194B" stroke-width="1"/>
<circle cx="297" cy="478" r="4" opacity="1" fill="none" stroke="#E6194B" stroke-width="1"/>
<circle cx="294" cy="478" r="4" opacity="1" fill="none" stroke="#E6194B" stroke-width="1"/>
<circle cx="292" cy="478" r="4" opacity="1" fill="none" stroke="#E6194B" stroke-width="1"/>
<circle cx="290" cy="478" r="4" opacity="1" fill="none" stroke="#E6194B" stroke-width="1"/>
<circle cx="287" cy="478" r="4" opacity="1" fill="none" stroke="#E6194B" stroke-width="1"/>
<circle cx="285" cy="478" r="4" opacity="1" fill="none" stroke="#E6194B" stroke-width="1"/>
<circle cx="283" cy="479" r="4" opacity="1" fill="none" stroke="#E6194B" stroke-width="1"/>
<circle cx="281" cy="479" r="4" opacity="1" fill="none" stroke="#E6194B" stroke-width="1"/>
<circle cx="278" cy="480" r="4" opacity="1" fill="none" stroke="#E6194B" stroke-width="1"/>
<circle cx="276" cy="480" r="4" opacity="1" fill="none" stroke="#E6194B" stroke-width="1"/>
<circle cx="274" cy="480" r="4" opacity="1" fill="none" stroke="#E6194B" stroke-width="1"/>
<circle cx="272" cy="481" r="4" opacity="1" fill="none" stroke="#E6194B" stroke-width="1"/>
<circle cx="270" cy="482" r="4" opacity="1" fill="none" stroke="#E6194B" stroke-width="1"/>
<circle cx="268" cy="482" r="4" opacity="1" fill="none" stroke="#E6194B" stroke-width="1"/>
<circle cx="266" cy="483" r="4" opacity="1" fill="none" stroke="#E6194B" stroke-width="1"/>
<circle cx="264" cy="483" r="4" opacity="1" fill="none" stroke="#E6194B" stroke-width="1"/>
<circle cx="262" cy="484" r="4" opacity="1" fill="none" stroke="#E6194B" stroke-width="1"/>
<circle cx="260" cy="485" r="4" opacity="1" fill="none" stroke="#E6194B" stroke-width="1"/>
<circle cx="258" cy="486" r="4" opacity="1" fill="none" stroke="#E6194B" stroke-width="1"/>
<circle cx="256" cy="487" r="4" opacity="1" fill="none" stroke="#E6194B" stroke-width="1"/>
<circle cx="254" cy="488" r="4" opacity="1" fill="none" stroke="#E6194B" stroke-width="1"/>
<circle cx="252" cy="489" r="4" opacity="1" fill="none" stroke="#E6194B" stroke-width="1"/>
<circle cx="250" cy="490" r="4" opacity="1" fill="none" stroke="#E6194B" stroke-width="1"/>
<circle cx="248" cy="491" r="4" opacity="1" fill="none" stroke="#E6194B" stroke-width="1"/>
<circle cx="247" cy="492" r="4" opacity="1" fill="none" stroke="#E6194B" stroke-width="1"/>
<circle cx="245" cy="493" r="4" opacity="1" fill="none" stroke="#E6194B" stroke-width="1"/>
<circle cx="243" cy="494" r="4" opacity="1" fill="none" stroke="#E6194B" stroke-width="1"/>
<circle cx="241" cy="495" r="4" opacity="1" fill="none" stroke="#E6194B" stroke-width="1"/>
<circle cx="240" cy="496" r="4" opacity="1" fill="none" stroke="#E6194B" stroke-width="1"/>
<circle cx="238" cy="498" r="4" opacity="1" fill="none" stroke="#E6194B" stroke-width="1"/>
<circle cx="237" cy="499" r="4" opacity="1" fill="none" stroke="#E6194B" stroke-width="1"/>
<circle cx="235" cy="500" r="4" opacity="1" fill="none" stroke="#E6194B" stroke-width="1"/>
<circle cx="234" cy="502" r="4" opacity="1" fill="none" stroke="#E6194B" stroke-width="1"/>
<circle cx="232" cy="503" r="4" opacity="1" fill="none" stroke="#E6194B" stroke-width="1"/>
<circle cx="231" cy="504" r="4" opacity="1" fill="none" stroke="#E6194B" stroke-width="1"/>
<circle cx="229" cy="506" r="4" opacity="1" fill="none" stroke="#E6194B" stroke-width="1"/>
<circle cx="228" cy="507" r="4" opacity="1" fill="none" stroke="#E6194B" stroke-width="1"/>
<circle cx="227" cy="509" r="4" opacity="1" fill="none" stroke="#E6194B" stroke-width="1"/>
<circle cx="225" cy="511" r="4" opacity="1" fill="none" stroke="#E6194B" stroke-width="1"/>
<circle cx="224" cy="512" r="4" opacity="1" fill="none" stroke="#E6194B" stroke-width="1"/>
<circle cx="223" cy="514" r="4" opacity="1" fill="none" stroke="#E6194B" stroke-width="1"/>
<circle cx="222" cy="516" r="4" opacity="1" fill="none" stroke="#E6194B" stroke-width="1"/>
<circle cx="221" cy="517" r="4" opacity="1" fill="none" stroke="#E6194B" stroke-width="1"/>
<circle cx="220" cy="519" r="4" opacity="1" fill="none" stroke="#E6194B" stroke-width="1"/>
<circle cx="219" cy="521" r="4" opacity="1" fill="none" stroke="#E6194B" stroke-width="1"/>
<circle cx="218" cy="523" r="4" opacity="1" fill="none" stroke="#E6194B" stroke-width="1"/>
<circle cx="217" cy="524" r="4" opacity="1" fill="none" stroke="#E6194B" stroke-width="1"/>
<circle cx="216" cy="526" r="4" opacity="1" fill="none" stroke="#E6194B" stroke-width="1"/>
<circle cx="215" cy="528" r="4" opacity="1" fill="none" stroke="#E6194B" stroke-width="1"/>
<circle cx="214" cy="530" r="4" opacity="1" fill="none" stroke="#E6194B" stroke-width="1"/>
<circle cx="213" cy="532" r="4" opacity="1" fill="none" stroke="#E6194B" stroke-width="1"/>
<circle cx="213" cy="534" r="4" opacity="1" fill="none" stroke="#E6194B" stroke-width="1"/>
<circle cx="212" cy="536" r="4" opacity="1" fill="none" stroke="#E6194B" stroke-width="1"/>
<circle cx="211" cy="538" r="4" opacity="1" fill="none" stroke="#E6194B" stroke-width="1"/>
<circle cx="211" cy="540" r="4" opacity="1" fill="none" stroke="#E6194B" stroke-width="1"/>
<circle cx="210" cy="542" r="4" opacity="1" fill="none" stroke="#E6194B" stroke-width="1"/>
<circle cx="210" cy="544" r="4" opacity="1" fill="none" stroke="#E6194B" stroke-width="1"/>
<circle cx="209" cy="546" r="4" opacity="1" fill="none" stroke="#E6194B" stroke-width="1"/>
<circle cx="209" cy="548" r="4" opacity="1" fill="none" stroke="#E6194B" stroke-width="1"/>
<circle cx="208" cy="550" r="4" opacity="1" fill="none" stroke="#E6194B" stroke-width="1"/>
<circle cx="208" cy="553" r="4" opacity="1" fill="none" stroke="#E6194B" stroke-width="1"/>
<circle cx="208" cy="555" r="4" opacity="1" fill="none" stroke="#E6194B" stroke-width="1"/>
<circle cx="208" cy="557" r="4" opacity="1" fill="none" stroke="#E6194B" stroke-width="1"/>
<circle cx="207" cy="559" r="4" opacity="1" fill="none" stroke="#E6194B" stroke-width="1"/>
<circle cx="207" cy="561" r="4" opacity="1" fill="none" stroke="#E6194B" stroke-width="1"/>
<circle cx="207" cy="563" r="4" opacity="1" fill="none" stroke="#E6194B" stroke-width="1"/>
<circle cx="207" cy="566" r="4" opacity="1" fill="none" stroke="#E6194B" stroke-width="1"/>
<circle cx="207" cy="568" r="4" opacity="1" fill="none" stroke="#E6194B" stroke-width="1"/>
<circle cx="207" cy="570" r="4" opacity="1" fill="none" stroke="#E6194B" stroke-width="1"/>
<circle cx="207" cy="572" r="4" opacity="1" fill="none" stroke="#E6194B" stroke-width="1"/>
<circle cx="208" cy="575" r="4" opacity="1" fill="none" stroke="#E6194B" stroke-width="1"/>
<circle cx="208" cy="577" r="4" opacity="1" fill="none" stroke="#E6194B" stroke-width="1"/>
<circle cx="208" cy="579" r="4" opacity="1" fill="none" stroke="#E6194B" stroke-width="1"/>
<circle cx="208" cy="582" r="4" opacity="1" fill="none" stroke="#E6194B" stroke-width="1"/>
<circle cx="209" cy="584" r="4" opacity="1" fill="none" stroke="#E6194B" stroke-width="1"/>
<circle cx="209" cy="586" r="4" opacity="1" fill="none" stroke="#E6194B" stroke-width="1"/>
<circle cx="210" cy="589" r="4" opacity="1" fill="none" stroke="#E6194B" stroke-width="1"/>
<circle cx="210" cy="591" r="4" opacity="1" fill="none" stroke="#E6194B" stroke-width="1"/>
<circle cx="211" cy="593" r="4" opacity="1" fill="none" stroke="#E6194B" stroke-width="1"/>
<circle cx="212" cy="595" r="4" opacity="1" fill="none" stroke="#E6194B" stroke-width="1"/>
<circle cx="212" cy="598" r="4" opacity="1" fill="none" stroke="#E6194B" stroke-width="1"/>
<circle cx="213" cy="600" r="4" opacity="1" fill="none" stroke="#E6194B" stroke-width="1"/>
<circle cx="214" cy="602" r="4" opacity="1" fill="none" stroke="#E6194B" stroke-width="1"/>
<circle cx="215" cy="605" r="4" opacity="1" fill="none" stroke="#E6194B" stroke-width="1"/>
<circle cx="216" cy="607" r="4" opacity="1" fill="none" stroke="#E6194B" stroke-width="1"/>
<circle cx="217" cy="609" r="4" opacity="1" fill="none" stroke="#E6194B" stroke-width="1"/>
<circle cx="218" cy="612" r="4" opacity="1" fill="none" stroke="#E6194B" stroke-width="1"/>
<circle cx="219" cy="614" r="4" opacity="1" fill="none" stroke="#E6194B" stroke-width="1"/>
<circle cx="220" cy="616" r="4" opacity="1" fill="none" stroke="#E6194B" stroke-width="1"/>
<circle cx="221" cy="618" r="4" opacity="1" fill="none" stroke="#E6194B" stroke-width="1"/>
<circle cx="222" cy="621" r="4" opacity="1" fill="none" stroke="#E6194B" stroke-width="1"/>
<circle cx="223" cy="623" r="4" opacity="1" fill="none" stroke="#E6194B" stroke-width="1"/>
<circle cx="225" cy="625" r="4" opacity="1" fill="none" stroke="#E6194B" stroke-width="1"/>
<circle cx="226" cy="627" r="4" opacity="1" fill="none" stroke="#E6194B" stroke-width="1"/>
<circle cx="228" cy="630" r="4" opacity="1" fill="none" stroke="#E6194B" stroke-width="1"/>
<circle cx="229" cy="632" r="4" opacity="1" fill="none" stroke="#E6194B" stroke-width="1"/>
<circle cx="231" cy="634" r="4" opacity="1" fill="none" stroke="#E6194B" stroke-width="1"/>
<circle cx="232" cy="636" r="4" opacity="1" fill="none" stroke="#E6194B" stroke-width="1"/>
<circle cx="234" cy="638" r="4" opacity="1" fill="none" stroke="#E6194B" stroke-width="1"/>
<circle cx="236" cy="640" r="4" opacity="1" fill="none" stroke="#E6194B" stroke-width="1"/>
<circle cx="237" cy="643" r="4" opacity="1" fill="none" stroke="#E6194B" stroke-width="1"/>
<circle cx="239" cy="645" r="4" opacity="1" fill="none" stroke="#E6194B" stroke-width="1"/>
<circle cx="241" cy="647" r="4" opacity="1" fill="none" stroke="#E6194B" stroke-width="1"/>
<circle cx="243" cy="649" r="4" opacity="1" fill="none" stroke="#E6194B" stroke-width="1"/>
<circle cx="245" cy="651" r="4" opacity="1" fill="none" stroke="#E6194B" stroke-width="1"/>
<circle cx="247" cy="653" r="4" opacity="1" fill="none" stroke="#E6194B" stroke-width="1"/>
<circle cx="249" cy="655" r="4" opacity="1" fill="none" stroke="#E6194B" stroke-width="1"/>
<circle cx="251" cy="657" r="4" opacity="1" fill="none" stroke="#E6194B" stroke-width="1"/>
<circle cx="253" cy="659" r="4" opacity="1" fill="none" stroke="#E6194B" stroke-width="1"/>
<circle cx="255" cy="661" r="4" opacity="1" fill="none" stroke="#E6194B" stroke-width="1"/>
<circle cx="257" cy="662" r="4" opacity="1" fill="none" stroke="#E6194B" stroke-width="1"/>
<circle cx="260" cy="664" r="4" opacity="1" fill="none" stroke="#E6194B" stroke-width="1"/>
<circle cx="262" cy="666" r="4" opacity="1" fill="none" stroke="#E6194B" stroke-width="1"/>
<circle cx="264" cy="668" r="4" opacity="1" fill="none" stroke="#E6194B" stroke-width="1"/>
<circle cx="267" cy="669" r="4" opacity="1" fill="none" stroke="#E6194B" stroke-width="1"/>
<circle cx="269" cy="671" r="4" opacity="1" fill="none" stroke="#E6194B" stroke-width="1"/>
<circle cx="272" cy="673" r="4" opacity="1" fill="none" stroke="#E6194B" stroke-width="1"/>
<circle cx="274" cy="674" r="4" opacity="1" fill="none" stroke="#E6194B" stroke-width="1"/>
<circle cx="277" cy="676" r="4" opacity="1" fill="none" stroke="#E6194B" stroke-width="1"/>
<circle cx="279" cy="678" r="4" opacity="1" fill="none" stroke="#E6194B" stroke-width="1"/>
<circle cx="282" cy="679" r="4" opacity="1" fill="none" stroke="#E6194B" stroke-width="1"/>
<circle cx="285" cy="681" r="4" opacity="1" fill="none" stroke="#E6194B" stroke-width="1"/>
<circle cx="287" cy="682" r="4" opacity="1" fill="none" stroke="#E6194B" stroke-width="1"/>
<circle cx="290" cy="683" r="4" opacity="1" fill="none" stroke="#E6194B" stroke-width="1"/>
<circle cx="293" cy="685" r="4" opacity="1" fill="none" stroke="#E6194B" stroke-width="1"/>
<circle cx="296" cy="686" r="4" opacity="1" fill="none" stroke="#E6194B" stroke-width="1"/>
<circle cx="299" cy="687" r="4" opacity="1" fill="none" stroke="#E6194B" stroke-width="1"/>
<circle cx="302" cy="689" r="4" opacity="1" fill="none" stroke="#E6194B" stroke-width="1"/>
<circle cx="305" cy="690" r="4" opacity="1" fill="none" stroke="#E6194B" stroke-width="1"/>
<circle cx="308" cy="691" r="4" opacity="1" fill="none" stroke="#E6194B" stroke-width="1"/>
<circle cx="311" cy="692" r="4" opacity="1" fill="none" stroke="#E6194B" stroke-width="1"/>
<circle cx="314" cy="693" r="4" opacity="1" fill="none" stroke="#E6194B" stroke-width="1"/>
<circle cx="317" cy="694" r="4" opacity="1" fill="none" stroke="#E6194B" stroke-width="1"/>
<circle cx="320" cy="695" r="4" opacity="1" fill="none" stroke="#E6194B" stroke-width="1"/>
<circle cx="323" cy="696" r="4" opacity="1" fill="none" stroke="#E6194B" stroke-width="1"/>
<circle cx="326" cy="697" r="4" opacity="1" fill="none" stroke="#E6194B" stroke-width="1"/>
<circle cx="330" cy="698" r="4" opacity="1" fill="none" stroke="#E6194B" stroke-width="1"/>
<circle cx="333" cy="698" r="4" opacity="1" fill="none" stroke="#E6194B" stroke-width="1"/>
<circle cx="336" cy="699" r="4" opacity="1" fill="none" stroke="#E6194B" stroke-width="1"/>
<circle cx="339" cy="700" r="4" opacity="1" fill="none" stroke="#E6194B" stroke-width="1"/>
<circle cx="343" cy="700" r="4" opacity="1" fill="none" stroke="#E6194B" stroke-width="1"/>
<circle cx="346" cy="701" r="4" opacity="1" fill="none" stroke="#E6194B" stroke-width="1"/>
<circle cx="350" cy="701" r="4" opacity="1" fill="none" stroke="#E6194B" stroke-width="1"/>
<circle cx="353" cy="702" r="4" opacity="1" fill="none" stroke="#E6194B" stroke-width="1"/>
<circle cx="356" cy="702" r="4" opacity="1" fill="none" stroke="#E6194B" stroke-width="1"/>
<circle cx="360" cy="703" r="4" opacity="1" fill="none" stroke="#E6194B" stroke-width="1"/>
<circle cx="363" cy="703" r="4" opacity="1" fill="none" stroke="#E6194B" stroke-width="1"/>
<circle cx="367" cy="703" r="4" opacity="1" fill="none" stroke="#E6194B" stroke-width="1"/>
<circle cx="370" cy="703" r="4" opacity="1" fill="none" stroke="#E6194B" stroke-width="1"/>
<circle cx="374" cy="703" r="4" opacity="1" fill="none" stroke="#E6194B" stroke-width="1"/>
<circle cx="377" cy="703" r="4" opacity="1" fill="none" stroke="#E6194B" stroke-width="1"/>
<circle cx="381" cy="703" r="4" opacity="1" fill="none" stroke="#E6194B" stroke-width="1"/>
<circle cx="385" cy="703" r="4" opacity="1" fill="none" stroke="#E6194B" stroke-width="1"/>
<circle cx="388" cy="703" r="4" opacity="1" fill="none" stroke="#E6194B" stroke-width="1"/>
<circle cx="392" cy="703" r="4" opacity="1" fill="none" stroke="#E6194B" stroke-width="1"/>
<circle cx="395" cy="703" r="4" opacity="1" fill="none" stroke="#E6194B" stroke-width="1"/>
<circle cx="399" cy="703" r="4" opacity="1" fill="none" stroke="#E6194B" stroke-width="1"/>
<circle cx="403" cy="702" r="4" opacity="1" fill="none" stroke="#E6194B" stroke-width="1"/>
<circle cx="406" cy="702" r="4" opacity="1" fill="none" stroke="#E6194B" stroke-width="1"/>
<circle cx="410" cy="701" r="4" opacity="1" fill="none" stroke="#E6194B" stroke-width="1"/>
<circle cx="413" cy="701" r="4" opacity="1" fill="none" stroke="#E6194B" stroke-width="1"/>
<circle cx="417" cy="700" r="4" opacity="1" fill="none" stroke="#E6194B" stroke-width="1"/>
<circle cx="421" cy="700" r="4" opacity="1" fill="none" stroke="#E6194B" stroke-width="1"/>
<circle cx="424" cy="699" r="4" opacity="1" fill="none" stroke="#E6194B" stroke-width="1"/>
<circle cx="428" cy="698" r="4" opacity="1" fill="none" stroke="#E6194B" stroke-width="1"/>
<circle cx="432" cy="698" r="4" opacity="1" fill="none" stroke="#E6194B" stroke-width="1"/>
<circle cx="435" cy="697" r="4" opacity="1" fill="none" stroke="#E6194B" stroke-width="1"/>
<circle cx="439" cy="696" r="4" opacity="1" fill="none" stroke="#E6194B" stroke-width="1"/>
<circle cx="443" cy="695" r="4" opacity="1" fill="none" stroke="#E6194B" stroke-width="1"/>
<circle cx="446" cy="694" r="4" opacity="1" fill="none" stroke="#E6194B" stroke-width="1"/>
<circle cx="450" cy="693" r="4" opacity="1" fill="none" stroke="#E6194B" stroke-width="1"/>
<circle cx="454" cy="691" r="4" opacity="1" fill="none" stroke="#E6194B" stroke-width="1"/>
<circle cx="457" cy="690" r="4" opacity="1" fill="none" stroke="#E6194B" stroke-width="1"/>
<circle cx="461" cy="689" r="4" opacity="1" fill="none" stroke="#E6194B" stroke-width="1"/>
<circle cx="465" cy="688" r="4" opacity="1" fill="none" stroke="#E6194B" stroke-width="1"/>
<circle cx="468" cy="686" r="4" opacity="1" fill="none" stroke="#E6194B" stroke-width="1"/>
<circle cx="472" cy="685" r="4" opacity="1" fill="none" stroke="#E6194B" stroke-width="1"/>
<circle cx="475" cy="683" r="4" opacity="1" fill="none" stroke="#E6194B" stroke-width="1"/>
<circle cx="479" cy="682" r="4" opacity="1" fill="none" stroke="#E6194B" stroke-width="1"/>
<circle cx="482" cy="680" r="4" opacity="1" fill="none" stroke="#E6194B" stroke-width="1"/>
<circle cx="486" cy="678" r="4" opacity="1" fill="none" stroke="#E6194B" stroke-width="1"/>
<circle cx="490" cy="677" r="4" opacity="1" fill="none" stroke="#E6194B" stroke-width="1"/>
<circle cx="493" cy="675" r="4" opacity="1" fill="none" stroke="#E6194B" stroke-width="1"/>
<circle cx="497" cy="673" r="4" opacity="1" fill="none" stroke="#E6194B" stroke-width="1"/>
<circle cx="500" cy="671" r="4" opacity="1" fill="none" stroke="#E6194B" stroke-width="1"/>
<circle cx="504" cy="669" r="4" opacity="1" fill="none" stroke="#E6194B" stroke-width="1"/>
<circle cx="507" cy="667" r="4" opacity="1" fill="none" stroke="#E6194B" stroke-width="1"/>
<circle cx="510" cy="665" r="4" opacity="1" fill="none" stroke="#E6194B" stroke-width="1"/>
<circle cx="514" cy="663" r="4" opacity="1" fill="none" stroke="#E6194B" stroke-width="1"/>
<circle cx="517" cy="661" r="4" opacity="1" fill="none" stroke="#E6194B" stroke-width="1"/>
<circle cx="520" cy="659" r="4" opacity="1" fill="none" stroke="#E6194B" stroke-width="1"/>
<circle cx="524" cy="656" r="4" opacity="1" fill="none" stroke="#E6194B" stroke-width="1"/>
<circle cx="527" cy="654" r="4" opacity="1" fill="none" stroke="#E6194B" stroke-width="1"/>
<circle cx="530" cy="652" r="4" opacity="1" fill="none" stroke="#E6194B" stroke-width="1"/>
<circle cx="534" cy="649" r="4" opacity="1" fill="none" stroke="#E6194B" stroke-width="1"/>
<circle cx="537" cy="647" r="4" opacity="1" fill="none" stroke="#E6194B" stroke-width="1"/>
<circle cx="540" cy="645" r="4" opacity="1" fill="none" stroke="#E6194B" stroke-width="1"/>
<circle cx="543" cy="642" r="4" opacity="1" fill="none" stroke="#E6194B" stroke-width="1"/>
<circle cx="546" cy="639" r="4" opacity="1" fill="none" stroke="#E6194B" stroke-width="1"/>
<circle cx="549" cy="637" r="4" opacity="1" fill="none" stroke="#E6194B" stroke-width="1"/>
<circle cx="552" cy="634" r="4" opacity="1" fill="none" stroke="#E6194B" stroke-width="1"/>
<circle cx="555" cy="631" r="4" opacity="1" fill="none" stroke="#E6194B" stroke-width="1"/>
<circle cx="558" cy="629" r="4" opacity="1" fill="none" stroke="#E6194B" stroke-width="1"/>
<circle cx="561" cy="626" r="4" opacity="1" fill="none" stroke="#E6194B" stroke-width="1"/>
<circle cx="564" cy="623" r="4" opacity="1" fill="none" stroke="#E6194B" stroke-width="1"/>
<circle cx="567" cy="620" r="4" opacity="1" fill="none" stroke="#E6194B" stroke-width="1"/>
<circle cx="570" cy="617" r="4" opacity="1" fill="none" stroke="#E6194B" stroke-width="1"/>
<circle cx="573" cy="614" r="4" opacity="1" fill="none" stroke="#E6194B" stroke-width="1"/>
<circle cx="575" cy="611" r="4" opacity="1" fill="none" stroke="#E6194B" stroke-width="1"/>
<circle cx="578" cy="608" r="4" opacity="1" fill="none" stroke="#E6194B" stroke-width="1"/>
<circle cx="581" cy="605" r="4" opacity="1" fill="none" stroke="#E6194B" stroke-width="1"/>
<circle cx="583" cy="602" r="4" opacity="1" fill="none" stroke="#E6194B" stroke-width="1"/>
<circle cx="586" cy="599" r="4" opacity="1" fill="none" stroke="#E6194B" stroke-width="1"/>
<circle cx="589" cy="596" r="4" opacity="1" fill="none" stroke="#E6194B" stroke-width="1"/>
<circle cx="591" cy="593" r="4" opacity="1" fill="none" stroke="#E6194B" stroke-width="1"/>
<circle cx="593" cy="590" r="4" opacity="1" fill="none" stroke="#E6194B" stroke-width="1"/>
<circle cx="596" cy="587" r="4" opacity="1" fill="none" stroke="#E6194B" stroke-width="1"/>
<circle cx="598" cy="584" r="4" opacity="1" fill="none" stroke="#E6194B" stroke-width="1"/>
<circle cx="601" cy="580" r="4" opacity="1" fill="none" stroke="#E6194B" stroke-width="1"/>
<circle cx="603" cy="577" r="4" opacity="1" fill="none" stroke="#E6194B" stroke-width="1"/>
<circle cx="605" cy="574" r="4" opacity="1" fill="none" stroke="#E6194B" stroke-width="1"/>
<circle cx="607" cy="571" r="4" opacity="1" fill="none" stroke="#E6194B" stroke-width="1"/>
<circle cx="609" cy="567" r="4" opacity="1" fill="none" stroke="#E6194B" stroke-width="1"/>
<circle cx="612" cy="564" r="4" opacity="1" fill="none" stroke="#E6194B" stroke-width="1"/>
<circle cx="614" cy="561" r="4" opacity="1" fill="none" stroke="#E6194B" stroke-width="1"/>
<circle cx="616" cy="558" r="4" opacity="1" fill="none" stroke="#E6194B" stroke-width="1"/>
<circle cx="618" cy="554" r="4" opacity="1" fill="none" stroke="#E6194B" stroke-width="1"/>
<circle cx="620" cy="551" r="4" opacity="1" fill="none" stroke="#E6194B" stroke-width="1"/>
<circle cx="621" cy="548" r="4" opacity="1" fill="none" stroke="#E6194B" stroke-width="1"/>
<circle cx="623" cy="544" r="4" opacity="1" fill="none" stroke="#E6194B" stroke-width="1"/>
<circle cx="625" cy="541" r="4" opacity="1" fill="none" stroke="#E6194B" stroke-width="1"/>
<circle cx="627" cy="538" r="4" opacity="1" fill="none" stroke="#E6194B" stroke-width="1"/>
<circle cx="628" cy="535" r="4" opacity="1" fill="none" stroke="#E6194B" stroke-width="1"/>
<circle cx="630" cy="531" r="4" opacity="1" fill="none" stroke="#E6194B" stroke-width="1"/>
<circle cx="632" cy="528" r="4" opacity="1" fill="none" stroke="#E6194B" stroke-width="1"/>
<circle cx="633" cy="525" r="4" opacity="1" fill="none" stroke="#E6194B" stroke-width="1"/>
<circle cx="635" cy="522" r="4" opacity="1" fill="none" stroke="#E6194B" stroke-width="1"/>
<circle cx="636" cy="519" r="4" opacity="1" fill="none" stroke="#E6194B" stroke-width="1"/>
<circle cx="637" cy="516" r="4" opacity="1" fill="none" stroke="#E6194B" stroke-width="1"/>
<circle cx="639" cy="513" r="4" opacity="1" fill="none" stroke="#E6194B" stroke-width="1"/>
<circle cx="640" cy="510" r="4" opacity="1" fill="none" stroke="#E6194B" stroke-width="1"/>
<circle cx="641" cy="507" r="4" opacity="1" fill="none" stroke="#E6194B" stroke-width="1"/>
<circle cx="642" cy="504" r="4" opacity="1" fill="none" stroke="#E6194B" stroke-width="1"/>
<circle cx="644" cy="501" r="4" opacity="1" fill="none" stroke="#E6194B" stroke-width="1"/>
<circle cx="645" cy="498" r="4" opacity="1" fill="none" stroke="#E6194B" stroke-width="1"/>
<circle cx="646" cy="495" r="4" opacity="1" fill="none" stroke="#E6194B" stroke-width="1"/>
<circle cx="647" cy="493" r="4" opacity="1" fill="none" stroke="#E6194B" stroke-width="1"/>
<circle cx="648" cy="490" r="4" opacity="1" fill="none" stroke="#E6194B" stroke-width="1"/>
<circle cx="649" cy="487" r="4" opacity="1" fill="none" stroke="#E6194B" stroke-width="1"/>
<circle cx="649" cy="485" r="4" opacity="1" fill="none" stroke="#E6194B" stroke-width="1"/>
<circle cx="650" cy="483" r="4" opacity="1" fill="none" stroke="#E6194B" stroke-width="1"/>
<circle cx="651" cy="480" r="4" opacity="1" fill="none" stroke="#E6194B" stroke-width="1"/>
<circle cx="652" cy="478" r="4" opacity="1" fill="none" stroke="#E6194B" stroke-width="1"/>
<circle cx="652" cy="476" r="4" opacity="1" fill="none" stroke="#E6194B" stroke-width="1"/>
<circle cx="653" cy="474" r="4" opacity="1" fill="none" stroke="#E6194B" stroke-width="1"/>
<circle cx="653" cy="472" r="4" opacity="1" fill="none" stroke="#E6194B" stroke-width="1"/>
<circle cx="654" cy="471" r="4" opacity="1" fill="none" stroke="#E6194B" stroke-width="1"/>
<circle cx="654" cy="469" r="4" opacity="1" fill="none" stroke="#E6194B" stroke-width="1"/>
<circle cx="654" cy="468" r="4" opacity="1" fill="none" stroke="#E6194B" stroke-width="1"/>
<circle cx="655" cy="467" r="4" opacity="1" fill="none" stroke="#E6194B" stroke-width="1"/>
<circle cx="655" cy="466" r="4" opacity="1" fill="none" stroke="#E6194B" stroke-width="1"/>
<circle cx="655" cy="465" r="4" opacity="1" fill="none" stroke="#E6194B" stroke-width="1"/>
<circle cx="655" cy="464" r="4" opacity="1" fill="none" stroke="#E6194B" stroke-width="1"/>
<circle cx="655" cy="463" r="4" opacity="1" fill="none" stroke="#E6194B" stroke-width="1"/>
<circle cx="655" cy="463" r="4" opacity="1" fill="none" stroke="#E6194B" stroke-width="1"/>
<circle cx="654" cy="463" r="4" opacity="1" fill="none" stroke="#E6194B" stroke-width="1"/>
<circle cx="654" cy="463" r="4" opacity="1" fill="none" stroke="#E6194B" stroke-width="1"/>
<circle cx="653" cy="464" r="4" opacity="1" fill="none" stroke="#E6194B" stroke-width="1"/>
<circle cx="653" cy="464" r="4" opacity="1" fill="none" stroke="#E6194B" stroke-width="1"/>
<circle cx="652" cy="465" r="4" opacity="1" fill="none" stroke="#E6194B" stroke-width="1"/>
<circle cx="651" cy="466" r="4" opacity="1" fill="none" stroke="#E6194B" stroke-width="1"/>
<circle cx="649" cy="467" r="4" opacity="1" fill="none" stroke="#E6194B" stroke-width="1"/>
<circle cx="648" cy="469" r="4" opacity="1" fill="none" stroke="#E6194B" stroke-width="1"/>
<circle cx="646" cy="471" r="4" opacity="1" fill="none" stroke="#E6194B" stroke-width="1"/>
<circle cx="645" cy="473" r="4" opacity="1" fill="none" stroke="#E6194B" stroke-width="1"/>
<circle cx="643" cy="475" r="4" opacity="1" fill="none" stroke="#E6194B" stroke-width="1"/>
<circle cx="640" cy="478" r="4" opacity="1" fill="none" stroke="#E6194B" stroke-width="1"/>
<circle cx="638" cy="480" r="4" opacity="1" fill="none" stroke="#E6194B" stroke-width="1"/>
<circle cx="635" cy="483" r="4" opacity="1" fill="none" stroke="#E6194B" stroke-width="1"/>
<circle cx="632" cy="486" r="4" opacity="1" fill="none" stroke="#E6194B" stroke-width="1"/>
<circle cx="628" cy="489" r="4" opacity="1" fill="none" stroke="#E6194B" stroke-width="1"/>
<circle cx="624" cy="493" r="4" opacity="1" fill="none" stroke="#E6194B" stroke-width="1"/>
<circle cx="620" cy="496" r="4" opacity="1" fill="none" stroke="#E6194B" stroke-width="1"/>
<circle cx="616" cy="499" r="4" opacity="1" fill="none" stroke="#E6194B" stroke-width="1"/>
<circle cx="611" cy="503" r="4" opacity="1" fill="none" stroke="#E6194B" stroke-width="1"/>
<circle cx="606" cy="506" r="4" opacity="1" fill="none" stroke="#E6194B" stroke-width="1"/>
<polyline fill="none" opacity="1" stroke="#FF0000" stroke-width="5" points="321,408 389,408 "/>
<polyline fill="none" opacity="1" stroke="#0000FF" stroke-width="5" points="321,408 321,337 "/>
<polyline fill="none" opacity="1" stroke="#000000" stroke-width="1" points="321,408 281,272 "/>
<polyline fill="none" opacity="1" stroke="#000000" stroke-width="1" points="281,272 262,484 467,64 281,272 "/>
<polyline fill="none" opacity="1" stroke="#000000" stroke-width="1" points="515,345 467,64 "/>
<polygon opacity="1" fill="#000000" points="321,408 313,423 330,423 "/>
<polygon opacity="1" fill="#000000" points="515,345 507,360 524,360 "/>
<circle cx="321" cy="408" r="5" opacity="1" fill="#000000" stroke="none" stroke-width="1"/>
<circle cx="515" cy="345" r="5" opacity="1" fill="#000000" stroke="none" stroke-width="1"/>
<circle cx="281" cy="272" r="5" opacity="1" fill="#000000" stroke="none" stroke-width="1"/>
<circle cx="467" cy="64" r="5" opacity="1" fill="#000000" stroke="none" stroke-width="1"/>
<circle cx="262" cy="484" r="5" opacity="1" fill="#000000" stroke="none" stroke-width="1"/>
</svg>
